<?xml version="1.0" encoding="UTF-8" standalone="no" ?>
<!DOCTYPE svg PUBLIC "-//W3C//DTD SVG 1.1//EN" "http://www.w3.org/Graphics/SVG/1.1/DTD/svg11.dtd">
<svg xmlns="http://www.w3.org/2000/svg" xmlns:xlink="http://www.w3.org/1999/xlink" version="1.1" width="2000" height="6000" viewBox="0 0 2000 6000" xml:space="preserve" style="opacity:0.2">
<desc>Created with Fabric.js 4.6.0</desc>
<defs>
</defs>
<g transform="matrix(1 0 0 1 1019.75 5836.34)" id="OqdTE1kcW395OjfFyWV0y"  >
<path style="stroke: rgb(0,0,0); stroke-width: 0; stroke-dasharray: none; stroke-linecap: butt; stroke-dashoffset: 0; stroke-linejoin: miter; stroke-miterlimit: 4; fill: hsl(198, 100%, 50%); fill-rule: nonzero; opacity: 1;" vector-effect="non-scaling-stroke"  transform=" translate(0, 0)" d="M 1075 -519.44444 L -1141.66667 -291.66666 L -1163.8888900000002 519.4444500000001 L 1163.8888899999997 458.3333400000001 z" stroke-linecap="round" />
</g>
<g transform="matrix(1 0 0 1 920.61 5450.38)" id="MSIdPW5lCfkeRvbi_vf0_"  >
<path style="stroke: rgb(0,0,0); stroke-width: 0; stroke-dasharray: none; stroke-linecap: butt; stroke-dashoffset: 0; stroke-linejoin: miter; stroke-miterlimit: 4; fill: hsl(198, 100%, 56%); fill-rule: nonzero; opacity: 1;" vector-effect="non-scaling-stroke"  transform=" translate(0, 0)" d="M -1499.04957 182.44703 L -917.8345999999999 -456.63972 L 1628.72821 -523.10852 L 1325.67842 182.44704000000002 C 1325.67842 182.44704000000002 1256.50598 721.33593 884.28376 443.55815 C 512.06154 165.78037 531.50598 149.11371000000003 -24.049570000000017 365.78037 C -579.60513 582.44704 -949.04957 437.49754 -1399.0495700000001 59.71976000000001 C -1849.0495700000001 -318.05802 -1499.0495700000001 182.44703 -1499.0495700000001 182.44703 z" stroke-linecap="round" />
</g>
<g transform="matrix(1 0 0 1 896.56 4993.74)" id="g8NXwXSLQjDt94lGF14Yw"  >
<path style="stroke: rgb(0,0,0); stroke-width: 0; stroke-dasharray: none; stroke-linecap: butt; stroke-dashoffset: 0; stroke-linejoin: miter; stroke-miterlimit: 4; fill: hsl(198, 100%, 62%); fill-rule: nonzero; opacity: 1;" vector-effect="non-scaling-stroke"  transform=" translate(0, 0)" d="M -1263.88889 161.30898 L -525 -383.13545999999997 L 1263.88889 -572.0243499999999 L 1218.1688 366.86454000000003 C 1218.1688 366.86454000000003 1180.5555499999998 122.42010000000005 958.3333299999999 133.53121000000004 C 736.1111099999999 144.64232000000004 471.7849799999999 100.19788000000005 155.11830999999995 300.19788000000005 C -161.54836000000006 500.19788000000005 -97.22222000000005 616.86455 -525 555.7534400000001 C -952.77778 494.6423300000001 -1263.88889 161.30900000000008 -1263.88889 161.30900000000008 z" stroke-linecap="round" />
</g>
<g transform="matrix(1 0 0 1 1004.9 4318.53)" id="zPvKmmTPRtHTrbNV4Qeo4"  >
<path style="stroke: rgb(0,0,0); stroke-width: 0; stroke-dasharray: none; stroke-linecap: butt; stroke-dashoffset: 0; stroke-linejoin: miter; stroke-miterlimit: 4; fill: hsl(198, 100%, 68%); fill-rule: nonzero; opacity: 1;" vector-effect="non-scaling-stroke"  transform=" translate(0, 0)" d="M -1212.36346 603.16537 L 17.754850000000033 -530.99997 L 1212.36453 -774.6124 L 1098.74765 258.72092999999995 C 1098.74765 258.72092999999995 998.74765 525.3876 670.96987 375.38759999999996 C 343.19209 225.38759999999996 245.53263000000004 275.38759999999996 17.754850000000033 458.72092999999995 C -210.02292999999997 642.0542599999999 -129.03012999999996 797.6098199999999 -462.36346 758.72093 C -795.69679 719.83204 -847.81516 547.6098199999999 -1031.14849 719.83204 C -1214.48182 892.05426 -1212.36346 603.16537 -1212.36346 603.16537 z" stroke-linecap="round" />
</g>
<g transform="matrix(1 0 0 1 1051.68 4016.7)" id="I6GlVrXhRolvtJofIh0L-"  >
<path style="stroke: rgb(0,0,0); stroke-width: 0; stroke-dasharray: none; stroke-linecap: butt; stroke-dashoffset: 0; stroke-linejoin: miter; stroke-miterlimit: 4; fill: hsl(198, 100%, 80%); fill-rule: nonzero; opacity: 1;" vector-effect="non-scaling-stroke"  transform=" translate(0, 0)" d="M -1374.56276 -56.09561 L -1213.45165 -890.98455 L 1380.9927900000002 -794.9845 L 1125.4372300000002 -372.76228000000003 C 1125.4372300000002 -372.76228000000003 800.9164400000002 -467.20672 612.0275500000002 -178.31784000000005 C 423.13866000000024 110.57104999999996 608.7705700000002 255.01548999999994 286.5483400000002 227.23771999999997 C -35.67387999999977 199.45993999999996 -58.7398799999998 116.12660999999997 -419.85098999999974 277.23771999999997 C -780.9620999999997 438.34882999999996 -591.2294399999997 1066.1266099999998 -1024.5627699999998 843.9043899999999 C -1457.8960999999997 621.6821699999999 -1374.5627699999998 -56.09561000000008 -1374.5627699999998 -56.09561000000008 z" stroke-linecap="round" />
</g>
<g transform="matrix(1 0 0 1 1021.56 3125.72)" id="PvztBOlRSGeBIP5FTv3dU"  >
<path style="stroke: rgb(0,0,0); stroke-width: 0; stroke-dasharray: none; stroke-linecap: butt; stroke-dashoffset: 0; stroke-linejoin: miter; stroke-miterlimit: 4; fill: hsl(198, 100%, 74%); fill-rule: nonzero; opacity: 1;" vector-effect="non-scaling-stroke"  transform=" translate(0, 0)" d="M -1566.66667 393.72085 L -140.67216000000008 -611.8347100000001 L 1566.6666599999999 -100.72360000000009 C 1566.6666599999999 -100.72360000000009 1394.4444399999998 438.16528999999986 1066.6666599999999 360.3875099999999 C 738.8888799999999 282.6097299999999 633.3333299999999 238.1652899999999 266.66665999999987 438.1652899999999 C -100.00001000000015 638.1652899999999 -16.666670000000124 699.2764 -305.5555600000001 438.1652899999999 C -594.4444500000002 177.05417999999992 -1566.66667 393.7208499999999 -1566.66667 393.7208499999999 z" stroke-linecap="round" />
</g>
<g transform="matrix(1 0 0 1 969.65 2900)" id="kwD2U1sVEyE9Z-aSuH3Av"  >
<path style="stroke: rgb(0,0,0); stroke-width: 0; stroke-dasharray: none; stroke-linecap: butt; stroke-dashoffset: 0; stroke-linejoin: miter; stroke-miterlimit: 4; fill: hsl(198, 100%, 50%); fill-rule: nonzero; opacity: 1;" vector-effect="non-scaling-stroke"  transform=" translate(0, 0)" d="M -1131.41818 -475 L 363.0262600000001 -991.66667 L 1435.2484800000002 -547.22223 L 1402.4892000000002 52.77777000000003 C 1402.4892000000002 52.77777000000003 1107.4707000000003 263.88888000000003 946.3595900000003 208.33333000000005 C 785.2484800000002 152.77777000000003 569.2412300000003 -308.9540099999999 30.352340000000254 -136.73178999999993 C -508.5365499999997 35.49043000000006 -370.3070699999997 652.77777 -792.5292999999997 697.2222200000001 C -1214.7515199999998 741.6666600000001 -1435.2484999999997 991.6666600000001 -1435.2484999999997 991.6666600000001 L -1131.4181899999996 -475.00001" stroke-linecap="round" />
</g>
<g transform="matrix(1 0 0 1 932.52 -428.54)" id="qD0mC6_MXJNuvt075EvBT"  >
<path style="stroke: rgb(0,0,0); stroke-width: 0; stroke-dasharray: none; stroke-linecap: butt; stroke-dashoffset: 0; stroke-linejoin: miter; stroke-miterlimit: 4; fill: hsl(198, 100%, 56%); fill-rule: nonzero; opacity: 1;" vector-effect="non-scaling-stroke"  transform=" translate(0, 0)" d="M 1075 -519.44444 L -1141.66667 -291.66666 L -1163.8888900000002 519.4444500000001 L 1163.8888899999997 458.3333400000001 z" stroke-linecap="round" />
</g>
<g transform="matrix(1 0 0 1 1004.9 1985.8)" id="VrNtkoXASyF8PwssxRr_h"  >
<path style="stroke: rgb(0,0,0); stroke-width: 0; stroke-dasharray: none; stroke-linecap: butt; stroke-dashoffset: 0; stroke-linejoin: miter; stroke-miterlimit: 4; fill: hsl(198, 100%, 62%); fill-rule: nonzero; opacity: 1;" vector-effect="non-scaling-stroke"  transform=" translate(0, 0)" d="M -1483.33333 300.31034 L -1002.1183599999999 -216.35632999999996 L 788.8888900000002 -777.46744 L 1483.3333300000002 -294.13411 L 1422.22222 405.86589 C 1422.22222 405.86589 1150 305.86589 927.7777800000001 439.19921999999997 C 705.5555600000001 572.5325499999999 855.5555600000001 933.64366 461.1111100000001 661.42144 C 66.66667000000012 389.19921999999997 209.4829800000001 11.421439999999961 -51.628129999999885 300.31032999999996 C -312.7392399999999 589.19922 -511.1111099999999 900.31033 -649.9999999999998 728.0881099999999 C -788.8888899999997 555.8658899999999 -949.9999999999998 300.3103299999999 -1094.4444399999998 566.9769999999999 C -1238.8888799999997 833.6436699999999 -1483.3333299999997 300.31032999999985 -1483.3333299999997 300.31032999999985 z" stroke-linecap="round" />
</g>
<g transform="matrix(1 0 0 1 1147.87 1390.53)" id="zg_QJOTdKxfhtE4AUpztr"  >
<path style="stroke: rgb(0,0,0); stroke-width: 0; stroke-dasharray: none; stroke-linecap: butt; stroke-dashoffset: 0; stroke-linejoin: miter; stroke-miterlimit: 4; fill: hsl(198, 100%, 68%); fill-rule: nonzero; opacity: 1;" vector-effect="non-scaling-stroke"  transform=" translate(0, 0)" d="M -1376.31012 -133.33333 C -1376.31012 -133.33333 -1422.87293 -380.18431 -1145.09515 -413.51764 C -867.3173700000001 -446.85096999999996 1379.2454399999997 -661.1111099999999 1379.2454399999997 -661.1111099999999 L 1251.4676599999998 211.11111000000005 C 1251.4676599999998 211.11111000000005 990.3565499999997 444.44444000000004 707.0232199999998 344.44444000000004 C 423.6898899999998 244.44444000000004 552.2986599999998 116.66666000000004 291.1875499999998 155.55555000000004 C 30.07643999999982 194.44444000000004 -292.97678000000013 644.44444 -659.6434500000003 577.77777 C -1026.3101200000003 511.1111 -1320.7545600000003 661.1111000000001 -1320.7545600000003 661.1111000000001 z" stroke-linecap="round" />
</g>
<g transform="matrix(1 0 0 1 1018.79 865.52)" id="NM9AZhLJ9V0Nfw1mlVpJ8"  >
<path style="stroke: rgb(0,0,0); stroke-width: 0; stroke-dasharray: none; stroke-linecap: butt; stroke-dashoffset: 0; stroke-linejoin: miter; stroke-miterlimit: 4; fill: hsl(198, 100%, 80%); fill-rule: nonzero; opacity: 1;" vector-effect="non-scaling-stroke"  transform=" translate(0, 0)" d="M -1180.55556 169.458 L 1095.9465699999998 -983.7605300000001 L 1180.5555499999998 -553.9674900000001 L 1180.5555499999998 30.56910999999991 C 1180.5555499999998 30.56910999999991 1052.7777699999997 175.0135499999999 847.2222199999999 130.5691099999999 C 641.6666599999999 86.12466999999991 447.2222199999999 -2.76422000000008 324.9999999999999 169.4579999999999 C 202.7777799999999 341.6802199999999 30.5555599999999 541.68022 52.77777999999989 791.68022 C 74.99999999999989 1041.68022 -253.62155000000013 986.12466 -386.9548800000001 958.34689 C -520.2882100000002 930.56911 -713.8888800000002 802.79133 -752.7777700000001 597.23578 C -791.6666600000001 391.68021999999996 -1180.55555 169.45799999999997 -1180.55555 169.45799999999997" stroke-linecap="round" />
</g>
<g transform="matrix(1 0 0 1 969.91 556.78)" id="wI8gVWMN4DHSbc8e9IVeF"  >
<path style="stroke: rgb(0,0,0); stroke-width: 0; stroke-dasharray: none; stroke-linecap: butt; stroke-dashoffset: 0; stroke-linejoin: miter; stroke-miterlimit: 4; fill: hsl(198, 100%, 74%); fill-rule: nonzero; opacity: 1;" vector-effect="non-scaling-stroke"  transform=" translate(0, 0)" d="M -1426.12561 767.1289 C -1353.90339 683.79557 -1276.12561 572.6844600000001 -1098.3478300000002 533.79557 C -920.5700500000002 494.90668 -743.6360500000002 572.68446 -415.8582700000002 494.90668 C -88.08049000000017 417.1289 162.76327999999978 389.35112 279.42994999999985 117.12889999999999 C 396.09661999999986 -155.09332 612.7632799999999 -393.98221 840.5410599999999 -505.09332 C 1068.31884 -616.20443 1451.6521699999998 -100.89766000000003 1434.9854999999998 -139.78654 C 1418.3188299999997 -178.67543 1281.4501499999997 -717.5706 1031.4501499999997 -712.01505 C 781.4501499999997 -706.45949 396.0966099999997 -909.5170899999999 46.096609999999714 -620.6282 C -303.9033900000003 -331.73931 -681.6811700000003 189.35113 -909.4589500000003 261.57335 C -1137.2367300000003 333.79557 -1498.3478400000004 850.46224 -1426.1256200000003 767.12891 z" stroke-linecap="round" />
</g>
<g transform="matrix(1 0 0 1 721.56 410.89)" id="18JR72Langde8h49HfVpv"  >
<path style="stroke: rgb(0,0,0); stroke-width: 0; stroke-dasharray: none; stroke-linecap: butt; stroke-dashoffset: 0; stroke-linejoin: miter; stroke-miterlimit: 4; fill: hsl(198, 100%, 50%); fill-rule: nonzero; opacity: 1;" vector-effect="non-scaling-stroke"  transform=" translate(0, 0)" d="M -1233.33333 265.02676 L -969.69697 -406.34397999999993 L 1233.33333 -199.60126999999994 C 1233.33333 -199.60126999999994 1072.2222199999999 -675.9101099999999 811.1111099999999 -542.5767799999999 C 550 -409.2434499999999 700 -631.4656699999998 333.33332999999993 -298.1323399999999 C -33.33334000000008 35.200990000000104 122.22221999999994 129.64544000000012 -161.11111000000005 240.75655000000006 C -444.44444000000004 351.86766000000006 -683.33333 435.20099000000005 -850 546.3121100000001 C -1016.6666700000001 657.4232200000001 -1233.33333 265.02675000000005 -1233.33333 265.02675000000005 z" stroke-linecap="round" />
</g>
<g transform="matrix(1 0 0 1 1663.71 696.9)" id="NN8Qi3-PM76xHsqUMhcPz"  >
<path style="stroke: rgb(0,0,0); stroke-width: 0; stroke-dasharray: none; stroke-linecap: butt; stroke-dashoffset: 0; stroke-linejoin: miter; stroke-miterlimit: 4; fill: hsl(198, 100%, 56%); fill-rule: nonzero; opacity: 1;" vector-effect="non-scaling-stroke"  transform=" translate(0, 0)" d="M -436.59032 -161.91669 C -436.59032 -161.91669 -286.59032 -173.02779999999998 -64.36810000000003 -89.69447 C 157.85411999999997 -6.361139999999992 333.51354 410.30553 333.51354 410.30553 C 333.51354 410.30553 402.29857 393.63885999999997 424.52079 215.86109 C 446.74300999999997 38.08330999999998 480.07635 -84.13891000000001 402.29857 -223.0278 C 324.52079 -361.91669 -103.25699000000003 -500.80558 -308.81254000000007 -334.13891 C -514.3681000000001 -167.47224 -436.5903200000001 -161.91669000000002 -436.5903200000001 -161.91669000000002 z" stroke-linecap="round" />
</g>
<g transform="matrix(1 0 0 1 1439.06 416.99)" id="lo493rMUiUi2c2yUA8KlF"  >
<path style="stroke: rgb(0,0,0); stroke-width: 0; stroke-dasharray: none; stroke-linecap: butt; stroke-dashoffset: 0; stroke-linejoin: miter; stroke-miterlimit: 4; fill: hsl(198, 100%, 62%); fill-rule: nonzero; opacity: 1;" vector-effect="non-scaling-stroke"  transform=" translate(0, 0)" d="M -768.43733 188.35113 C -845.1930199999999 5.92449000000002 -804.17752 -108.69799999999998 -679.54844 -233.32707999999997 C -554.91936 -357.95615999999995 -442.47294 -396.40819 -193.21478000000002 -414.2123399999999 C 56.043379999999985 -432.0164899999999 169.56135 -405.8130699999999 326.51815999999997 -356.88460999999995 C 483.47497 -307.95615999999995 540.16801 -238.94856999999996 646.99294 -132.12364999999994 C 753.81787 -25.298719999999946 807.23033 108.23243000000005 807.23033 108.23243000000005 C 807.23033 108.23243000000005 648.1304299999999 -114.45137999999994 326.51815999999997 -194.43818999999993 C 4.905889999999943 -274.42499999999995 -317.71198000000004 -163.24794999999995 -439.06048 -25.298719999999946 C -560.4089799999999 112.65051000000005 -528.08125 419.80514000000005 -528.08125 419.80514000000005 C -528.08125 419.80514000000005 -691.68165 370.77777000000003 -768.43733 188.35113000000004 z" stroke-linecap="round" />
</g>
<g transform="matrix(1 0 0 1 1554.96 675.92)" id="DPvLFXnYil36LrX67dmft"  >
<path style="stroke: rgb(0,0,0); stroke-width: 0; stroke-dasharray: none; stroke-linecap: butt; stroke-dashoffset: 0; stroke-linejoin: miter; stroke-miterlimit: 4; fill: hsl(198, 100%, 68%); fill-rule: nonzero; opacity: 1;" vector-effect="non-scaling-stroke"  transform=" translate(0, 0)" d="M -638.95703 160.87906 C -638.95703 160.87906 -683.40147 3.5075800000000186 -672.2903600000001 -79.82575 C -661.17925 -163.15908000000002 -594.5125800000001 -302.04796999999996 -527.8459200000001 -357.60353 C -461.1792500000001 -413.15909 -238.9570300000001 -552.04797 61.042969999999855 -524.2701999999999 C 361.04296999999985 -496.4924199999999 472.15407999999985 -385.3813099999999 583.2651899999998 -285.3813099999999 C 694.3762999999999 -185.38130999999993 688.8207499999999 86.84091000000006 644.3762999999999 259.06313000000006 C 599.9318599999999 431.28535000000005 438.8207399999999 503.50757000000004 255.4874099999999 525.7298000000001 C 72.15407999999991 547.9520200000001 -115.90382000000011 392.3964700000001 -115.90382000000011 392.3964700000001 C -115.90382000000011 392.3964700000001 244.37628999999987 553.5075800000001 355.4874099999999 314.6186900000001 C 466.5985199999999 75.72980000000007 427.7096299999999 -124.27019999999993 405.4874099999999 -179.8257499999999 C 383.2651899999999 -235.38130999999993 88.82073999999989 -440.9368599999999 -155.62370000000016 -135.38130999999993 C -400.06814000000014 170.1742500000001 -38.95703000000016 192.39647000000008 -38.95703000000016 192.39647000000008 C -38.95703000000016 192.39647000000008 -183.40147000000013 259.0631400000001 -361.17925000000014 259.0631400000001 C -538.9570300000001 259.0631400000001 -638.9570300000001 160.8790600000001 -638.9570300000001 160.8790600000001 z" stroke-linecap="round" />
</g>
<g transform="matrix(1 0 0 1 451.33 151.11)" id="F1V2Z9p9ROTMFfatb_ZxB"  >
<path style="stroke: rgb(0,0,0); stroke-width: 0; stroke-dasharray: none; stroke-linecap: butt; stroke-dashoffset: 0; stroke-linejoin: miter; stroke-miterlimit: 4; fill: hsl(198, 100%, 74%); fill-rule: nonzero; opacity: 1;" vector-effect="non-scaling-stroke"  transform=" translate(0, 0)" d="M -468.6602 357.80465 C -468.6602 357.80465 -490.88241999999997 229.92947999999998 -251.99352999999996 135.48503 C -13.10463999999996 41.040589999999995 125.78425000000004 113.57476 336.89536 -3.0919000000000096 C 548.00647 -119.75857 501.9339 -357.80465000000004 501.9339 -357.80465000000004 C 501.9339 -357.80465000000004 459.11758 -291.13798 403.56203 -252.24909000000002 C 348.00647 -213.36020000000002 -331.88966999999997 -202.24909000000002 -448.55633000000006 -68.91576000000003 C -565.2230000000001 64.41756999999996 -468.66019000000006 357.80465 -468.66019000000006 357.80465 z" stroke-linecap="round" />
</g>
<g transform="matrix(1 0 0 1 509.9 211.29)" id="-eFNB4UeUpFeWPhDHfP8b"  >
<path style="stroke: rgb(0,0,0); stroke-width: 0; stroke-dasharray: none; stroke-linecap: butt; stroke-dashoffset: 0; stroke-linejoin: miter; stroke-miterlimit: 4; fill: hsl(198, 100%, 80%); fill-rule: nonzero; opacity: 1;" vector-effect="non-scaling-stroke"  transform=" translate(0, 0)" d="M 443.37172 -329.52737 C 443.37172 -329.52737 621.82032 -170.90668000000002 459.75136 132.54159999999996 C 297.68238999999994 435.98987999999997 170.31667999999996 315.30021999999997 15.144259999999974 249.78297999999995 C -140.02815000000004 184.26573999999994 -215.89022000000003 198.80539999999996 -322.78677000000005 281.56401999999997 C -429.68332000000004 364.32264 -526.23505 297.62192999999996 -526.23505 297.62192999999996 C -526.23505 297.62192999999996 -529.68333 263.57607999999993 -526.23505 235.98987999999997 C -522.78677 208.40366999999998 -533.1316 147.71610999999996 -460.71781 75.30231999999998 C -388.30402 2.8885299999999745 -302.09712 -18.447030000000026 -91.75228999999996 -63.274610000000024 C 118.59254000000004 -108.10220000000002 135.83392000000003 -50.21701000000002 246.17874000000006 -101.94115000000002 C 356.52357000000006 -153.66529000000003 443.3717200000001 -329.52736000000004 443.3717200000001 -329.52736000000004 z" stroke-linecap="round" />
</g>
<g transform="matrix(1 0 0 1 1710.5 2698.48)" id="_lx8V7OglGr551kzwP1pI"  >
<path style="stroke: rgb(0,0,0); stroke-width: 0; stroke-dasharray: none; stroke-linecap: butt; stroke-dashoffset: 0; stroke-linejoin: miter; stroke-miterlimit: 4; fill: hsl(198, 100%, 50%); fill-rule: nonzero; opacity: 1;" vector-effect="non-scaling-stroke"  transform=" translate(0, 0)" d="M -3.33333 -25 C -3.33333 -25 -57.35655 -68.33332999999999 -147.35655 -45 C -237.35655 -21.66667 -303.33333 64.78201 -303.33333 64.78201 L -66.66665999999998 245 L 210.00001000000003 138.33333 C 210.00001000000003 138.33333 333.33334 101.66665999999998 260.00001000000003 -45 C 186.66668000000004 -191.66667 -103.33331999999996 -288.33333 -103.33331999999996 -288.33333 L 260.00001000000003 -328.33333 L 373.33334 111.66667000000001 L -103.33332999999999 328.33334 L -373.33333 64.78202000000005 L -223.33333 -141.66665999999995 L -66.66665999999998 -128.33332999999996 z" stroke-linecap="round" />
</g>
<g transform="matrix(1 0 0 1 1563.14 2600.25)" id="iwEN1EvzF1J4YuNbKu8qa"  >
<path style="stroke: rgb(0,0,0); stroke-width: 0; stroke-dasharray: none; stroke-linecap: butt; stroke-dashoffset: 0; stroke-linejoin: miter; stroke-miterlimit: 4; fill: hsl(198, 100%, 56%); fill-rule: nonzero; opacity: 1;" vector-effect="non-scaling-stroke"  transform=" translate(0, 0)" d="M -604.38435 85.41219 C -593.3899700000001 -10.14676 -354.72501000000005 -360.04236 199.82043999999996 -123.67872000000001 C 754.3658899999999 112.68491999999999 144.05984999999995 276.32128 -37.75833000000003 203.59401000000003 C -219.57651000000004 130.86674000000002 -128.66742000000005 33.499270000000024 -37.75833000000003 -2.8643699999999797 C 53.15075999999998 -39.228009999999976 151.29746999999998 85.41219000000002 151.29746999999998 85.41219000000002 C 151.29746999999998 85.41219000000002 117.96358999999998 -53.05908999999998 27.054499999999976 -80.33180999999998 C -63.85459000000003 -107.60453999999997 -289.06845000000004 -5.496899999999982 -289.06845000000004 139.95765 C -289.06845000000004 285.4122 -48.70254000000003 534.31466 151.29745999999994 525.22375 C 351.29745999999994 516.13284 1069.47928 130.86674 769.47928 -196.40598 C 469.47928 -523.67871 -903.2479900000001 -757.56104 -839.6116299999999 -139.37922 C -775.9752699999999 478.8026 -394.1570799999999 525.22375 -394.1570799999999 525.22375 C -394.1570799999999 525.22375 -615.3787299999999 180.97115000000002 -604.3843499999999 85.41219999999998 z" stroke-linecap="round" />
</g>
<g transform="matrix(1 0 0 1 420.85 2534.54)" id="P7j3wvTwglXuM3cimI2or"  >
<path style="stroke: rgb(0,0,0); stroke-width: 0; stroke-dasharray: none; stroke-linecap: butt; stroke-dashoffset: 0; stroke-linejoin: miter; stroke-miterlimit: 4; fill: hsl(198, 100%, 62%); fill-rule: nonzero; opacity: 1;" vector-effect="non-scaling-stroke"  transform=" translate(0, 0)" d="M 475.70814 -1589.19764 C 475.70814 -1589.19764 130.03847000000002 -1630.49829 22.346159999999998 -1553.5752200000002 C -85.34615000000001 -1476.6521400000001 -216.91605 -1404.98403 -147.68528 -1228.06095 C -78.45451 -1051.13787 22.346159999999998 -792.0367600000001 22.346159999999998 -676.65214 C 22.346159999999998 -561.26752 -39.1923 -348.44701000000003 -116.11538000000002 -248.44701000000003 C -193.03846000000001 -148.44701000000003 -429.38865000000004 204.47704 -460.15788000000003 281.40011999999996 C -490.92711 358.32319999999993 -467.85019000000005 484.88632999999993 -460.15788000000003 623.34786 C -452.46557 761.8094 -423.80768 907.96324 -331.49999 1000.27094 C -239.19230000000005 1092.57863 -170.76220000000004 1231.04017 -147.68528000000003 1307.96325 C -124.60836000000003 1384.88633 -110.70312000000004 1600.2709399999999 -110.70312000000004 1600.2709399999999 C -110.70312000000004 1600.2709399999999 -0.7307600000000463 1277.19402 -23.807680000000047 1161.8093999999999 C -46.88460000000005 1046.4247799999998 -132.30066000000005 792.5786299999999 -147.68528000000003 761.8093999999999 C -163.06990000000005 731.0401699999999 -239.19230000000005 473.7118599999999 -193.03845000000004 381.40416999999985 C -146.88460000000003 289.0964799999999 -93.03845000000004 126.04016999999985 -54.57691000000003 79.88631999999984 C -16.115370000000027 33.73246999999984 59.50023999999998 -92.03676000000016 128.73100999999997 -192.03676000000019 C 197.96177999999998 -292.0367600000002 299.26923999999997 -443.8083200000002 299.26923999999997 -543.8083200000002 C 299.26923999999997 -643.8083200000002 276.19232 -761.2675300000002 222.34615999999997 -899.7290700000002 C 168.50000999999997 -1038.19061 132.39400999999998 -1100.22213 128.73100999999997 -1228.0609500000003 C 125.06800999999997 -1355.8997800000002 113.17327999999998 -1408.0975800000003 210.97547999999998 -1487.5847600000002 C 308.77768 -1567.0719400000003 475.70813999999996 -1589.19764 475.70813999999996 -1589.19764 z" stroke-linecap="round" />
</g>
<g transform="matrix(1 0 0 1 905.83 4672.75)" id="X8g4Uz6K7lRo9Q2BalUWZ"  >
<path style="stroke: rgb(0,0,0); stroke-width: 0; stroke-dasharray: none; stroke-linecap: butt; stroke-dashoffset: 0; stroke-linejoin: miter; stroke-miterlimit: 4; fill: hsl(198, 100%, 68%); fill-rule: nonzero; opacity: 1;" vector-effect="non-scaling-stroke"  transform=" translate(0, 0)" d="M 533.23149 -861.2921 C 533.23149 -861.2921 400.19010000000003 -1081.2921000000001 306.85677 -1081.2921000000001 C 213.52344 -1081.2921000000001 87.43902999999997 -961.2921000000001 47.43903 -894.62543 C 7.4390300000000025 -827.9587600000001 -24.938329999999993 -611.2709 -24.938329999999993 -537.93757 C -24.938329999999993 -464.60424000000006 59.62271000000001 -451.02758000000006 79.62271000000001 -251.02758000000006 C 99.62271000000001 -51.02758000000006 57.40049000000001 187.86130999999995 -9.266179999999991 254.52797999999996 C -75.93284999999999 321.19464999999997 -394.49487 505.37456999999995 -454.49487 572.04124 C -514.49487 638.70791 -543.36013 945.37457 -530.02679 998.7079100000001 C -516.69346 1052.04124 -116.69346000000002 1092.04124 -63.360119999999995 1078.70791 C -10.026789999999998 1065.3745800000002 293.52344 825.3745800000002 306.85677 705.3745800000002 C 320.1901 585.3745800000002 269.97321 478.70791000000014 269.97321 478.70791000000014 C 269.97321 478.70791000000014 256.63988 558.7079100000001 196.63988 652.0412400000001 C 136.63988 745.3745700000002 43.306550000000016 938.7079100000001 -110.02679 938.7079100000001 C -263.36012 938.7079100000001 -429.26602 918.7079100000001 -395.93269 812.0412400000001 C -362.59936 705.3745700000002 -277.77461999999997 625.3745700000002 -184.44127999999998 572.0412400000001 C -91.10794999999997 518.7079100000001 269.97321 425.3745700000001 343.30655 172.04124000000013 C 416.63988 -81.29208999999986 329.97322 -294.6254299999999 269.97322 -501.2920899999999 C 209.97322000000003 -707.95876 163.30655000000002 -774.6254199999998 269.97322 -861.2920899999999 C 376.63989000000004 -947.9587599999999 533.23149 -861.2920899999999 533.23149 -861.2920899999999 z" stroke-linecap="round" />
</g>
<g transform="matrix(1 0 0 1 947.15 4696.85)" id="u7KdLV85GtqbZlqCQ3gIs"  >
<path style="stroke: rgb(0,0,0); stroke-width: 0; stroke-dasharray: none; stroke-linecap: butt; stroke-dashoffset: 0; stroke-linejoin: miter; stroke-miterlimit: 4; fill: hsl(198, 100%, 80%); fill-rule: nonzero; opacity: 1;" vector-effect="non-scaling-stroke"  transform=" translate(0, 0)" d="M 468.58812 -898.93229 C 468.58812 -898.93229 406.08812 -961.43229 306.08812 -942.68229 C 206.08812 -923.93229 132.65982 -880.18229 104.53482 -789.55729 C 76.40982 -698.93229 331.08812 -274.10357 306.08812 -24.10356999999999 C 281.08812 225.89643 -143.44116000000002 516.69271 -327.81615999999997 576.06771 C -512.19116 635.44271 -500.16188 857.31771 -468.91188 897.94271 C -437.66188 938.56771 -281.41188 972.94271 -159.53688 916.69271 C -37.66188 860.44271 90.51760999999999 741.69271 90.51760999999999 741.69271 C 90.51760999999999 741.69271 -150.58350000000002 910.44271 -275.5835 897.94271 C -400.5835 885.44271 -381.41188 804.19271 -356.41188 757.31771 C -331.41188 710.44271 -175.16188 585.44271 -103.28688 551.06771 C -31.411879999999996 516.69271 271.71312 344.81771000000003 334.21312 188.56771000000003 C 396.71312 32.317710000000034 593.58812 -105.18228999999997 412.33812 -427.05728999999997 C 231.08812 -748.93229 296.71312 -758.31313 334.21312 -805.18813 C 371.71312 -852.06313 468.58812 -898.93229 468.58812 -898.93229 z" stroke-linecap="round" />
</g>
<g transform="matrix(1 0 0 1 1019.75 4722.72)" id="lMerdUafGljMsSrQgrFVp"  >
<path style="stroke: rgb(0,0,0); stroke-width: 0; stroke-dasharray: none; stroke-linecap: butt; stroke-dashoffset: 0; stroke-linejoin: miter; stroke-miterlimit: 4; fill: hsl(198, 100%, 74%); fill-rule: nonzero; opacity: 1;" vector-effect="non-scaling-stroke"  transform=" translate(0, 0)" d="M 402.2331 -924.80552 C 402.2331 -924.80552 333.4831 -912.30552 308.4831 -887.30552 C 283.4831 -862.30552 202.23309999999998 -843.5198800000001 214.73309999999998 -706.0198800000001 C 227.23309999999998 -568.5198800000001 277.2331 -444.7543800000001 308.4831 -301.0043800000001 C 339.7331 -157.25438000000008 311.6081 100.19447999999994 214.73309999999998 193.94447999999994 C 117.85809999999998 287.69447999999994 -1.4223400000000197 384.56947999999994 -113.92234000000002 450.19447999999994 C -226.42234000000002 515.8194799999999 -363.3919 556.4444799999999 -425.8919 693.9444799999999 C -488.3919 831.4444799999999 -472.29618000000005 859.5694799999999 -387.92118000000005 900.1944799999999 C -303.54618000000005 940.8194799999999 -124.92463000000004 940.8194799999999 -34.299630000000036 825.1944799999999 C 56.325369999999964 709.5694799999999 128.12159999999997 506.4444799999999 128.12159999999997 506.4444799999999 C 128.12159999999997 506.4444799999999 -0.891900000000021 709.5694799999999 -91.51690000000002 762.6944799999999 C -182.14190000000002 815.8194799999999 -238.39190000000002 843.9444799999999 -254.01690000000002 775.1944799999999 C -269.6419 706.4444799999999 -191.93852 572.0694799999999 -123.18852000000001 543.9444799999999 C -54.43852000000001 515.8194799999999 296.95037 381.8396699999999 365.70037 184.9646699999999 C 434.45037 -11.910330000000101 527.2331 -187.30552000000012 402.23310000000004 -437.30552000000006 C 277.23310000000004 -687.3055200000001 283.03882000000004 -746.6805200000001 317.41382000000004 -799.8055200000001 C 351.78882000000004 -852.9305200000001 402.23310000000004 -924.8055200000001 402.23310000000004 -924.8055200000001 z" stroke-linecap="round" />
</g>
<g transform="matrix(1 0 0 1 81.78 1637.61)" id="JfUXmHGJP8K1sQthz0pJ7"  >
<path style="stroke: rgb(0,0,0); stroke-width: 0; stroke-dasharray: none; stroke-linecap: butt; stroke-dashoffset: 0; stroke-linejoin: miter; stroke-miterlimit: 4; fill: hsl(198, 100%, 50%); fill-rule: nonzero; opacity: 1;" vector-effect="non-scaling-stroke"  transform=" translate(0, 0)" d="M 175 13.63636 C 175 13.63636 122.72727 54.54545 70.45455 54.54545 C 18.181819999999995 54.54545 -22.727270000000004 77.27272 -56.81818 40.909090000000006 C -90.90908999999999 4.5454500000000095 -129.19528 -31.818179999999998 -99.64983000000001 -59.090909999999994 C -70.10438 -86.36363999999999 -63.63637000000001 -111.36364 -38.63637000000001 -113.63636 C -13.636370000000007 -115.90908999999999 20.454539999999994 -106.81818 29.545449999999995 -84.09091 C 38.636359999999996 -61.36363999999999 56.81818 -31.81817999999999 29.545449999999995 -34.090909999999994 C 2.272719999999996 -36.36364 -21.509520000000002 -70.45454999999998 -21.509520000000002 -70.45454999999998 L -38.63637 -34.09090999999999 L 11.36363 13.63636000000001 C 11.36363 13.63636000000001 63.63636 -7.323699999999988 70.45454000000001 -16.41460999999999 C 77.27272 -25.50551999999999 70.45454000000001 -100 70.45454000000001 -100 L 29.54545000000001 -152.27273 L -147.72727999999998 -152.27273 L -175.00000999999997 29.545450000000017 L 29.545440000000013 152.27272000000002 L 152.27271000000002 65.90908000000002 z" stroke-linecap="round" />
</g>
<g transform="matrix(1 0 0 1 60.27 1621.2)" id="4KMP0UA_LoVA_4nXv2XMI"  >
<path style="stroke: rgb(0,0,0); stroke-width: 0; stroke-dasharray: none; stroke-linecap: butt; stroke-dashoffset: 0; stroke-linejoin: miter; stroke-miterlimit: 4; fill: hsl(198, 100%, 56%); fill-rule: nonzero; opacity: 1;" vector-effect="non-scaling-stroke"  transform=" translate(0, 0)" d="M 3.3277 -63.13085 C 3.3277 -63.13085 -37.58139 -56.312670000000004 -37.58139 -24.49449 C -37.58139 7.323690000000003 46.509519999999995 52.77824 46.509519999999995 52.77824 C 46.509519999999995 52.77824 112.41861 11.869149999999998 112.41861 -38.13085000000001 C 112.41861 -88.13085000000001 78.3277 -172.22176000000002 19.23679 -181.31267 C -39.85412 -190.40358 -162.58139 -206.31267 -178.49048 -138.13085 C -194.39956999999998 -69.94903000000001 -223.94502999999997 39.141879999999986 -137.58139 100.50550999999999 C -51.217749999999995 161.86915 76.05497 218.68732999999997 128.3277 173.23278 C 180.60043 127.77823 196.50952 27.77822999999998 196.50952 27.77822999999998 C 196.50952 27.77822999999998 171.50952 73.23277999999998 141.96407 89.14186999999998 C 112.41861999999999 105.05095999999999 -10.308660000000003 109.59641999999998 -37.581379999999996 89.14186999999998 C -64.85410999999999 68.68731999999999 -126.48608999999999 59.59641999999998 -115.12245999999999 2.7782299999999793 C -103.75881999999999 -54.03995000000002 -114.85410999999999 -99.49450000000002 -83.03592999999998 -108.58541000000002 C -51.21774999999998 -117.67632000000002 32.87316000000003 -129.03996000000004 55.60043000000002 -97.22177000000002 C 78.32770000000002 -65.40359000000002 94.23679000000001 2.7782299999999793 55.60043000000002 2.7782299999999793 C 16.964070000000014 2.7782299999999793 5.600430000000017 -10.85813000000002 3.3277000000000143 -24.49450000000002 C 1.0549700000000142 -38.13086000000002 3.3277000000000143 -63.13086000000003 3.3277000000000143 -63.13086000000003 z" stroke-linecap="round" />
</g>
<g transform="matrix(-0.22 0.97 -0.97 -0.22 729.81 1240.52)" id="b2-Lo5fEXJeQ4cmXNYG6E"  >
<path style="stroke: rgb(0,0,0); stroke-width: 0; stroke-dasharray: none; stroke-linecap: butt; stroke-dashoffset: 0; stroke-linejoin: miter; stroke-miterlimit: 4; fill: hsl(198, 100%, 62%); fill-rule: nonzero; opacity: 1;" vector-effect="non-scaling-stroke"  transform=" translate(0, 0)" d="M 175 13.63636 C 175 13.63636 122.72727 54.54545 70.45455 54.54545 C 18.181819999999995 54.54545 -22.727270000000004 77.27272 -56.81818 40.909090000000006 C -90.90908999999999 4.5454500000000095 -129.19528 -31.818179999999998 -99.64983000000001 -59.090909999999994 C -70.10438 -86.36363999999999 -63.63637000000001 -111.36364 -38.63637000000001 -113.63636 C -13.636370000000007 -115.90908999999999 20.454539999999994 -106.81818 29.545449999999995 -84.09091 C 38.636359999999996 -61.36363999999999 56.81818 -31.81817999999999 29.545449999999995 -34.090909999999994 C 2.272719999999996 -36.36364 -21.509520000000002 -70.45454999999998 -21.509520000000002 -70.45454999999998 L -38.63637 -34.09090999999999 L 11.36363 13.63636000000001 C 11.36363 13.63636000000001 63.63636 -7.323699999999988 70.45454000000001 -16.41460999999999 C 77.27272 -25.50551999999999 70.45454000000001 -100 70.45454000000001 -100 L 29.54545000000001 -152.27273 L -147.72727999999998 -152.27273 L -175.00000999999997 29.545450000000017 L 29.545440000000013 152.27272000000002 L 152.27271000000002 65.90908000000002 z" stroke-linecap="round" />
</g>
<g transform="matrix(-0.22 0.97 -0.97 -0.22 750.64 1223.25)" id="dPdUowWn53TqXPkpL-I23"  >
<path style="stroke: rgb(0,0,0); stroke-width: 0; stroke-dasharray: none; stroke-linecap: butt; stroke-dashoffset: 0; stroke-linejoin: miter; stroke-miterlimit: 4; fill: hsl(198, 100%, 68%); fill-rule: nonzero; opacity: 1;" vector-effect="non-scaling-stroke"  transform=" translate(0, 0)" d="M 3.3277 -63.13085 C 3.3277 -63.13085 -37.58139 -56.312670000000004 -37.58139 -24.49449 C -37.58139 7.323690000000003 46.509519999999995 52.77824 46.509519999999995 52.77824 C 46.509519999999995 52.77824 112.41861 11.869149999999998 112.41861 -38.13085000000001 C 112.41861 -88.13085000000001 78.3277 -172.22176000000002 19.23679 -181.31267 C -39.85412 -190.40358 -162.58139 -206.31267 -178.49048 -138.13085 C -194.39956999999998 -69.94903000000001 -223.94502999999997 39.141879999999986 -137.58139 100.50550999999999 C -51.217749999999995 161.86915 76.05497 218.68732999999997 128.3277 173.23278 C 180.60043 127.77823 196.50952 27.77822999999998 196.50952 27.77822999999998 C 196.50952 27.77822999999998 171.50952 73.23277999999998 141.96407 89.14186999999998 C 112.41861999999999 105.05095999999999 -10.308660000000003 109.59641999999998 -37.581379999999996 89.14186999999998 C -64.85410999999999 68.68731999999999 -126.48608999999999 59.59641999999998 -115.12245999999999 2.7782299999999793 C -103.75881999999999 -54.03995000000002 -114.85410999999999 -99.49450000000002 -83.03592999999998 -108.58541000000002 C -51.21774999999998 -117.67632000000002 32.87316000000003 -129.03996000000004 55.60043000000002 -97.22177000000002 C 78.32770000000002 -65.40359000000002 94.23679000000001 2.7782299999999793 55.60043000000002 2.7782299999999793 C 16.964070000000014 2.7782299999999793 5.600430000000017 -10.85813000000002 3.3277000000000143 -24.49450000000002 C 1.0549700000000142 -38.13086000000002 3.3277000000000143 -63.13086000000003 3.3277000000000143 -63.13086000000003 z" stroke-linecap="round" />
</g>
<g transform="matrix(-0.64 -0.77 0.77 -0.64 277.03 3710.53)" id="UmuKl5R6AVjqjGACm2-zK"  >
<path style="stroke: rgb(0,0,0); stroke-width: 0; stroke-dasharray: none; stroke-linecap: butt; stroke-dashoffset: 0; stroke-linejoin: miter; stroke-miterlimit: 4; fill: hsl(198, 100%, 74%); fill-rule: nonzero; opacity: 1;" vector-effect="non-scaling-stroke"  transform=" translate(0, 0)" d="M 175 13.63636 C 175 13.63636 122.72727 54.54545 70.45455 54.54545 C 18.181819999999995 54.54545 -22.727270000000004 77.27272 -56.81818 40.909090000000006 C -90.90908999999999 4.5454500000000095 -129.19528 -31.818179999999998 -99.64983000000001 -59.090909999999994 C -70.10438 -86.36363999999999 -63.63637000000001 -111.36364 -38.63637000000001 -113.63636 C -13.636370000000007 -115.90908999999999 20.454539999999994 -106.81818 29.545449999999995 -84.09091 C 38.636359999999996 -61.36363999999999 56.81818 -31.81817999999999 29.545449999999995 -34.090909999999994 C 2.272719999999996 -36.36364 -21.509520000000002 -70.45454999999998 -21.509520000000002 -70.45454999999998 L -38.63637 -34.09090999999999 L 11.36363 13.63636000000001 C 11.36363 13.63636000000001 63.63636 -7.323699999999988 70.45454000000001 -16.41460999999999 C 77.27272 -25.50551999999999 70.45454000000001 -100 70.45454000000001 -100 L 29.54545000000001 -152.27273 L -147.72727999999998 -152.27273 L -175.00000999999997 29.545450000000017 L 29.545440000000013 152.27272000000002 L 152.27271000000002 65.90908000000002 z" stroke-linecap="round" />
</g>
<g transform="matrix(-0.64 -0.77 0.77 -0.64 278.29 3737.55)" id="nKwk-2Lh4V3bgpTVRE3-p"  >
<path style="stroke: rgb(0,0,0); stroke-width: 0; stroke-dasharray: none; stroke-linecap: butt; stroke-dashoffset: 0; stroke-linejoin: miter; stroke-miterlimit: 4; fill: hsl(198, 100%, 80%); fill-rule: nonzero; opacity: 1;" vector-effect="non-scaling-stroke"  transform=" translate(0, 0)" d="M 3.3277 -63.13085 C 3.3277 -63.13085 -37.58139 -56.312670000000004 -37.58139 -24.49449 C -37.58139 7.323690000000003 46.509519999999995 52.77824 46.509519999999995 52.77824 C 46.509519999999995 52.77824 112.41861 11.869149999999998 112.41861 -38.13085000000001 C 112.41861 -88.13085000000001 78.3277 -172.22176000000002 19.23679 -181.31267 C -39.85412 -190.40358 -162.58139 -206.31267 -178.49048 -138.13085 C -194.39956999999998 -69.94903000000001 -223.94502999999997 39.141879999999986 -137.58139 100.50550999999999 C -51.217749999999995 161.86915 76.05497 218.68732999999997 128.3277 173.23278 C 180.60043 127.77823 196.50952 27.77822999999998 196.50952 27.77822999999998 C 196.50952 27.77822999999998 171.50952 73.23277999999998 141.96407 89.14186999999998 C 112.41861999999999 105.05095999999999 -10.308660000000003 109.59641999999998 -37.581379999999996 89.14186999999998 C -64.85410999999999 68.68731999999999 -126.48608999999999 59.59641999999998 -115.12245999999999 2.7782299999999793 C -103.75881999999999 -54.03995000000002 -114.85410999999999 -99.49450000000002 -83.03592999999998 -108.58541000000002 C -51.21774999999998 -117.67632000000002 32.87316000000003 -129.03996000000004 55.60043000000002 -97.22177000000002 C 78.32770000000002 -65.40359000000002 94.23679000000001 2.7782299999999793 55.60043000000002 2.7782299999999793 C 16.964070000000014 2.7782299999999793 5.600430000000017 -10.85813000000002 3.3277000000000143 -24.49450000000002 C 1.0549700000000142 -38.13086000000002 3.3277000000000143 -63.13086000000003 3.3277000000000143 -63.13086000000003 z" stroke-linecap="round" />
</g>
<g transform="matrix(0.48 0.87 -0.87 0.48 1998.91 2371.63)" id="SzOI79ypGeJDR_zXIdL-H"  >
<path style="stroke: rgb(0,0,0); stroke-width: 0; stroke-dasharray: none; stroke-linecap: butt; stroke-dashoffset: 0; stroke-linejoin: miter; stroke-miterlimit: 4; fill: hsl(198, 100%, 50%); fill-rule: nonzero; opacity: 1;" vector-effect="non-scaling-stroke"  transform=" translate(0, 0)" d="M 175 13.63636 C 175 13.63636 122.72727 54.54545 70.45455 54.54545 C 18.181819999999995 54.54545 -22.727270000000004 77.27272 -56.81818 40.909090000000006 C -90.90908999999999 4.5454500000000095 -129.19528 -31.818179999999998 -99.64983000000001 -59.090909999999994 C -70.10438 -86.36363999999999 -63.63637000000001 -111.36364 -38.63637000000001 -113.63636 C -13.636370000000007 -115.90908999999999 20.454539999999994 -106.81818 29.545449999999995 -84.09091 C 38.636359999999996 -61.36363999999999 56.81818 -31.81817999999999 29.545449999999995 -34.090909999999994 C 2.272719999999996 -36.36364 -21.509520000000002 -70.45454999999998 -21.509520000000002 -70.45454999999998 L -38.63637 -34.09090999999999 L 11.36363 13.63636000000001 C 11.36363 13.63636000000001 63.63636 -7.323699999999988 70.45454000000001 -16.41460999999999 C 77.27272 -25.50551999999999 70.45454000000001 -100 70.45454000000001 -100 L 29.54545000000001 -152.27273 L -147.72727999999998 -152.27273 L -175.00000999999997 29.545450000000017 L 29.545440000000013 152.27272000000002 L 152.27271000000002 65.90908000000002 z" stroke-linecap="round" />
</g>
<g transform="matrix(0.48 0.87 -0.87 0.48 2002.83 2344.86)" id="SZOLEaqgAb0UWyxPT1VD7"  >
<path style="stroke: rgb(0,0,0); stroke-width: 0; stroke-dasharray: none; stroke-linecap: butt; stroke-dashoffset: 0; stroke-linejoin: miter; stroke-miterlimit: 4; fill: hsl(198, 100%, 56%); fill-rule: nonzero; opacity: 1;" vector-effect="non-scaling-stroke"  transform=" translate(0, 0)" d="M 3.3277 -63.13085 C 3.3277 -63.13085 -37.58139 -56.312670000000004 -37.58139 -24.49449 C -37.58139 7.323690000000003 46.509519999999995 52.77824 46.509519999999995 52.77824 C 46.509519999999995 52.77824 112.41861 11.869149999999998 112.41861 -38.13085000000001 C 112.41861 -88.13085000000001 78.3277 -172.22176000000002 19.23679 -181.31267 C -39.85412 -190.40358 -162.58139 -206.31267 -178.49048 -138.13085 C -194.39956999999998 -69.94903000000001 -223.94502999999997 39.141879999999986 -137.58139 100.50550999999999 C -51.217749999999995 161.86915 76.05497 218.68732999999997 128.3277 173.23278 C 180.60043 127.77823 196.50952 27.77822999999998 196.50952 27.77822999999998 C 196.50952 27.77822999999998 171.50952 73.23277999999998 141.96407 89.14186999999998 C 112.41861999999999 105.05095999999999 -10.308660000000003 109.59641999999998 -37.581379999999996 89.14186999999998 C -64.85410999999999 68.68731999999999 -126.48608999999999 59.59641999999998 -115.12245999999999 2.7782299999999793 C -103.75881999999999 -54.03995000000002 -114.85410999999999 -99.49450000000002 -83.03592999999998 -108.58541000000002 C -51.21774999999998 -117.67632000000002 32.87316000000003 -129.03996000000004 55.60043000000002 -97.22177000000002 C 78.32770000000002 -65.40359000000002 94.23679000000001 2.7782299999999793 55.60043000000002 2.7782299999999793 C 16.964070000000014 2.7782299999999793 5.600430000000017 -10.85813000000002 3.3277000000000143 -24.49450000000002 C 1.0549700000000142 -38.13086000000002 3.3277000000000143 -63.13086000000003 3.3277000000000143 -63.13086000000003 z" stroke-linecap="round" />
</g>
<g transform="matrix(0.1 -0.99 0.99 0.1 391.17 177.14)" id="hIpmm3vsLTvi2guOyZa90"  >
<path style="stroke: rgb(0,0,0); stroke-width: 0; stroke-dasharray: none; stroke-linecap: butt; stroke-dashoffset: 0; stroke-linejoin: miter; stroke-miterlimit: 4; fill: hsl(198, 100%, 62%); fill-rule: nonzero; opacity: 1;" vector-effect="non-scaling-stroke"  transform=" translate(0, 0)" d="M 175 13.63636 C 175 13.63636 122.72727 54.54545 70.45455 54.54545 C 18.181819999999995 54.54545 -22.727270000000004 77.27272 -56.81818 40.909090000000006 C -90.90908999999999 4.5454500000000095 -129.19528 -31.818179999999998 -99.64983000000001 -59.090909999999994 C -70.10438 -86.36363999999999 -63.63637000000001 -111.36364 -38.63637000000001 -113.63636 C -13.636370000000007 -115.90908999999999 20.454539999999994 -106.81818 29.545449999999995 -84.09091 C 38.636359999999996 -61.36363999999999 56.81818 -31.81817999999999 29.545449999999995 -34.090909999999994 C 2.272719999999996 -36.36364 -21.509520000000002 -70.45454999999998 -21.509520000000002 -70.45454999999998 L -38.63637 -34.09090999999999 L 11.36363 13.63636000000001 C 11.36363 13.63636000000001 63.63636 -7.323699999999988 70.45454000000001 -16.41460999999999 C 77.27272 -25.50551999999999 70.45454000000001 -100 70.45454000000001 -100 L 29.54545000000001 -152.27273 L -147.72727999999998 -152.27273 L -175.00000999999997 29.545450000000017 L 29.545440000000013 152.27272000000002 L 152.27271000000002 65.90908000000002 z" stroke-linecap="round" />
</g>
<g transform="matrix(0.1 -0.99 0.99 0.1 372.6 196.82)" id="1Gwb363gc9uCjJ7r_OSIm"  >
<path style="stroke: rgb(0,0,0); stroke-width: 0; stroke-dasharray: none; stroke-linecap: butt; stroke-dashoffset: 0; stroke-linejoin: miter; stroke-miterlimit: 4; fill: hsl(198, 100%, 68%); fill-rule: nonzero; opacity: 1;" vector-effect="non-scaling-stroke"  transform=" translate(0, 0)" d="M 3.3277 -63.13085 C 3.3277 -63.13085 -37.58139 -56.312670000000004 -37.58139 -24.49449 C -37.58139 7.323690000000003 46.509519999999995 52.77824 46.509519999999995 52.77824 C 46.509519999999995 52.77824 112.41861 11.869149999999998 112.41861 -38.13085000000001 C 112.41861 -88.13085000000001 78.3277 -172.22176000000002 19.23679 -181.31267 C -39.85412 -190.40358 -162.58139 -206.31267 -178.49048 -138.13085 C -194.39956999999998 -69.94903000000001 -223.94502999999997 39.141879999999986 -137.58139 100.50550999999999 C -51.217749999999995 161.86915 76.05497 218.68732999999997 128.3277 173.23278 C 180.60043 127.77823 196.50952 27.77822999999998 196.50952 27.77822999999998 C 196.50952 27.77822999999998 171.50952 73.23277999999998 141.96407 89.14186999999998 C 112.41861999999999 105.05095999999999 -10.308660000000003 109.59641999999998 -37.581379999999996 89.14186999999998 C -64.85410999999999 68.68731999999999 -126.48608999999999 59.59641999999998 -115.12245999999999 2.7782299999999793 C -103.75881999999999 -54.03995000000002 -114.85410999999999 -99.49450000000002 -83.03592999999998 -108.58541000000002 C -51.21774999999998 -117.67632000000002 32.87316000000003 -129.03996000000004 55.60043000000002 -97.22177000000002 C 78.32770000000002 -65.40359000000002 94.23679000000001 2.7782299999999793 55.60043000000002 2.7782299999999793 C 16.964070000000014 2.7782299999999793 5.600430000000017 -10.85813000000002 3.3277000000000143 -24.49450000000002 C 1.0549700000000142 -38.13086000000002 3.3277000000000143 -63.13086000000003 3.3277000000000143 -63.13086000000003 z" stroke-linecap="round" />
</g>
<g transform="matrix(0.33 -0.95 0.95 0.33 1909.84 4978.75)" id="VWM98rX8YJxGYNsscC_S4"  >
<path style="stroke: rgb(0,0,0); stroke-width: 0; stroke-dasharray: none; stroke-linecap: butt; stroke-dashoffset: 0; stroke-linejoin: miter; stroke-miterlimit: 4; fill: hsl(198, 100%, 74%); fill-rule: nonzero; opacity: 1;" vector-effect="non-scaling-stroke"  transform=" translate(0, 0)" d="M 175 13.63636 C 175 13.63636 122.72727 54.54545 70.45455 54.54545 C 18.181819999999995 54.54545 -22.727270000000004 77.27272 -56.81818 40.909090000000006 C -90.90908999999999 4.5454500000000095 -129.19528 -31.818179999999998 -99.64983000000001 -59.090909999999994 C -70.10438 -86.36363999999999 -63.63637000000001 -111.36364 -38.63637000000001 -113.63636 C -13.636370000000007 -115.90908999999999 20.454539999999994 -106.81818 29.545449999999995 -84.09091 C 38.636359999999996 -61.36363999999999 56.81818 -31.81817999999999 29.545449999999995 -34.090909999999994 C 2.272719999999996 -36.36364 -21.509520000000002 -70.45454999999998 -21.509520000000002 -70.45454999999998 L -38.63637 -34.09090999999999 L 11.36363 13.63636000000001 C 11.36363 13.63636000000001 63.63636 -7.323699999999988 70.45454000000001 -16.41460999999999 C 77.27272 -25.50551999999999 70.45454000000001 -100 70.45454000000001 -100 L 29.54545000000001 -152.27273 L -147.72727999999998 -152.27273 L -175.00000999999997 29.545450000000017 L 29.545440000000013 152.27272000000002 L 152.27271000000002 65.90908000000002 z" stroke-linecap="round" />
</g>
<g transform="matrix(0.33 -0.95 0.95 0.33 1887.32 4993.74)" id="Oe92EA3lUggSxFp12E7q9"  >
<path style="stroke: rgb(0,0,0); stroke-width: 0; stroke-dasharray: none; stroke-linecap: butt; stroke-dashoffset: 0; stroke-linejoin: miter; stroke-miterlimit: 4; fill: hsl(198, 100%, 80%); fill-rule: nonzero; opacity: 1;" vector-effect="non-scaling-stroke"  transform=" translate(0, 0)" d="M 3.3277 -63.13085 C 3.3277 -63.13085 -37.58139 -56.312670000000004 -37.58139 -24.49449 C -37.58139 7.323690000000003 46.509519999999995 52.77824 46.509519999999995 52.77824 C 46.509519999999995 52.77824 112.41861 11.869149999999998 112.41861 -38.13085000000001 C 112.41861 -88.13085000000001 78.3277 -172.22176000000002 19.23679 -181.31267 C -39.85412 -190.40358 -162.58139 -206.31267 -178.49048 -138.13085 C -194.39956999999998 -69.94903000000001 -223.94502999999997 39.141879999999986 -137.58139 100.50550999999999 C -51.217749999999995 161.86915 76.05497 218.68732999999997 128.3277 173.23278 C 180.60043 127.77823 196.50952 27.77822999999998 196.50952 27.77822999999998 C 196.50952 27.77822999999998 171.50952 73.23277999999998 141.96407 89.14186999999998 C 112.41861999999999 105.05095999999999 -10.308660000000003 109.59641999999998 -37.581379999999996 89.14186999999998 C -64.85410999999999 68.68731999999999 -126.48608999999999 59.59641999999998 -115.12245999999999 2.7782299999999793 C -103.75881999999999 -54.03995000000002 -114.85410999999999 -99.49450000000002 -83.03592999999998 -108.58541000000002 C -51.21774999999998 -117.67632000000002 32.87316000000003 -129.03996000000004 55.60043000000002 -97.22177000000002 C 78.32770000000002 -65.40359000000002 94.23679000000001 2.7782299999999793 55.60043000000002 2.7782299999999793 C 16.964070000000014 2.7782299999999793 5.600430000000017 -10.85813000000002 3.3277000000000143 -24.49450000000002 C 1.0549700000000142 -38.13086000000002 3.3277000000000143 -63.13086000000003 3.3277000000000143 -63.13086000000003 z" stroke-linecap="round" />
</g>
</svg>